PathFileType	4	(X/Y/Z)	C:/Users/opensim2020/Desktop/walking_exp_matlab/subject06_walking19_straight_02.trc																																																																																																																																																	
DataRate	CameraRate	NumFrames	NumMarkers	Units	OrigDataRate	OrigDataStartFrame	OrigNumFrames																																																																																																																																													
100	100	4	49	mm	100	2317	332																																																																																																																																													
Frame#	Time	LFHD			RFHD			LBHD			RBHD			C7			T10			CLAV			STRN			RBAK			LSHO			LUPA			LELB			LFRM			LWRA			LWRB			LFIN			RSHO			RUPA			RELB			RFRM			RWRA			RWRB			RFIN			LASI			RASI			LPSI			RPSI			LTHI			LKNE			LTIB			LANK			LHEE			LTOE			RTHI			RKNE			RTIB			RANK			RHEE			RTOE			*39			*40			*41			*42			*43			*44			*45			*46			*47			*48		
		X1	Y1	Z1	X2	Y2	Z2	X3	Y3	Z3	X4	Y4	Z4	X5	Y5	Z5	X6	Y6	Z6	X7	Y7	Z7	X8	Y8	Z8	X9	Y9	Z9	X10	Y10	Z10	X11	Y11	Z11	X12	Y12	Z12	X13	Y13	Z13	X14	Y14	Z14	X15	Y15	Z15	X16	Y16	Z16	X17	Y17	Z17	X18	Y18	Z18	X19	Y19	Z19	X20	Y20	Z20	X21	Y21	Z21	X22	Y22	Z22	X23	Y23	Z23	X24	Y24	Z24	X25	Y25	Z25	X26	Y26	Z26	X27	Y27	Z27	X28	Y28	Z28	X29	Y29	Z29	X30	Y30	Z30	X31	Y31	Z31	X32	Y32	Z32	X33	Y33	Z33	X34	Y34	Z34	X35	Y35	Z35	X36	Y36	Z36	X37	Y37	Z37	X38	Y38	Z38	X39	Y39	Z39	X40	Y40	Z40	X41	Y41	Z41	X42	Y42	Z42	X43	Y43	Z43	X44	Y44	Z44	X45	Y45	Z45	X46	Y46	Z46	X47	Y47	Z47	X48	Y48	Z48	X49	Y49	Z49
																																																																																																																																																				
125	1.24	-532.69989	1658.11792	952.39594	-516.46161	1653.02039	1083.52307	-658.38141	1590.51746	969.71741	-640.70416	1590.35278	1097.72693	-640.92841	1441.49719	1023.22284	-666.70349	1112.84473	1030.48596	-528.70587	1368.48865	1020.10815	-484.28583	1194.00745	1019.77991	-706.28271	1272.75244	1109.49817	-588.69226	1397.09546	859.77466	-627.14258	1201.64331	788.55298	-654.16333	1092.2511	780.2854	-660.52515	940.57495	763.14453	-631.56903	817.64264	812.22101	-687.5332	824.3186	767.94861	-665.71069	735.63068	774.20569	-567.39539	1400.20215	1181.51611	-573.55444	1200.96765	1274.09937	-543.66992	1082.60486	1288.01184	-499.41769	970.8327	1302.69043	-409.03458	851.60492	1263.75488	-457.71985	839.61432	1308.64136	-402.5491	776.31061	1307.44653	-476.25891	964.69238	931.7771	-493.15799	960.44922	1149.58325	-633.30414	983.72559	945.84009	-640.6283	982.71326	1112.8302	-508.05301	649.20557	858.80109	-488.83069	486.76599	879.75494	-476.28976	230.95959	888.55219	-440.97226	61.33138	932.0202	-472.88556	45.51113	981.53003	-292.67679	43.88959	930.33612	-585.23376	623.92877	1199.22815	-601.16833	497.06775	1182.72681	-772.77863	288.06757	1181.72437	-887.16669	138.08757	1142.30115	-934.99872	139.72934	1100.77136	-779.25037	30.37191	1121.28198	-629.00446	1688.8363	1022.06384	NaN	NaN	NaN	NaN	NaN	NaN	NaN	NaN	NaN	NaN	NaN	NaN	NaN	NaN	NaN	NaN	NaN	NaN	NaN	NaN	NaN	NaN	NaN	NaN	NaN	NaN	NaN
126	1.25	-526.66022	1658.95007	950.56482	-510.7012	1653.98486	1081.72803	-652.34082	1591.30493	967.71582	-634.84674	1591.18652	1095.70374	-634.60144	1442.05713	1021.37781	-659.72797	1113.53162	1028.76135	-522.22601	1369.4552	1018.33234	-477.30029	1195.05945	1018.00275	-699.56305	1273.31177	1107.80798	-582.21198	1398.0343	858.08319	-619.07166	1202.42944	786.37494	-645.58905	1092.79285	777.48315	-650.14136	941.14801	760.41364	-621.38867	818.17706	809.80219	-675.80646	824.42285	765.38995	-653.40759	736.02325	771.10522	-561.1095	1401.19763	1179.67542	-567.22772	1202.04993	1272.42175	-538.24158	1083.42126	1286.00818	-494.54108	971.38989	1300.77405	-404.6806	851.62286	1262.06702	-453.58261	839.92603	1306.78479	-398.84424	776.14001	1305.57202	-469.26657	965.59656	929.76062	-485.89795	961.26514	1147.4502	-626.29901	984.7038	944.16614	-633.36237	983.33813	1111.02271	-503.86133	649.62384	857.40485	-485.4155	487.01779	878.51154	-474.11169	231.32121	888.48999	-440.23737	61.44152	932.19122	-472.72327	45.64574	981.48163	-291.88959	43.3776	932.09222	-576.12549	624.34894	1198.4635	-590.43518	497.17734	1182.83936	-764.91687	291.05878	1181.70374	-881.86786	142.98444	1142.69128	-929.07037	146.34618	1100.96509	-778.78699	30.55343	1121.04773	-622.99615	1689.57739	1019.935	NaN	NaN	NaN	NaN	NaN	NaN	NaN	NaN	NaN	NaN	NaN	NaN	NaN	NaN	NaN	NaN	NaN	NaN	NaN	NaN	NaN	NaN	NaN	NaN	NaN	NaN	NaN
127	1.26	-520.77301	1659.7688	948.64191	-504.82159	1654.80554	1079.81885	-646.2774	1591.86011	965.66101	-629.27234	1591.90063	1093.97827	-628.28186	1442.56702	1019.52454	-652.71582	1114.03784	1026.95923	-515.69312	1370.30054	1016.59058	-470.40979	1196.01978	1016.26721	-692.9198	1273.78528	1105.98804	-575.75092	1398.85522	856.39215	-611.05786	1203.11963	784.17877	-636.32684	1093.29639	775.14209	-639.71008	941.72552	757.28705	-608.90265	819.0484	806.56586	-664.3042	825.0058	761.76526	-640.66425	736.5191	768.0368	-554.89233	1402.01465	1177.87402	-561.09558	1202.93542	1270.76819	-532.73279	1084.13184	1284.04102	-489.69711	971.81622	1298.90295	-400.3822	851.54468	1260.396	-449.48404	840.22021	1305.14771	-395.11386	775.84296	1303.71997	-462.43573	966.26392	927.84644	-478.83688	962.04388	1145.38379	-619.16217	985.51251	942.24194	-626.32501	983.90118	1109.21863	-499.6965	649.86456	856.00806	-481.70389	487.19263	877.39435	-472.10672	231.42029	888.48889	-439.61349	61.54943	932.49011	-472.4296	45.74056	981.63867	-291.33249	42.84827	933.05493	-566.70172	624.65814	1197.74109	-579.53003	497.24088	1183.04065	-756.63171	294.12598	1181.75476	-876.45984	148.2507	1143.06287	-922.7561	153.0611	1101.14539	-778.21503	30.90029	1120.86597	-617.25061	1690.29431	1017.96143	NaN	NaN	NaN	NaN	NaN	NaN	NaN	NaN	NaN	NaN	NaN	NaN	NaN	NaN	NaN	NaN	NaN	NaN	NaN	NaN	NaN	NaN	NaN	NaN	NaN	NaN	NaN
128	1.27	-514.80426	1660.36926	946.78424	-499.11148	1655.54614	1077.98157	-640.37262	1592.34607	963.7254	-623.14966	1592.37097	1091.73376	-621.95001	1442.97681	1017.75189	-645.90454	1114.52844	1025.11292	-509.21603	1370.99707	1014.89978	-463.56744	1196.81458	1014.56104	-686.28467	1274.09619	1104.03088	-569.34387	1399.56165	854.72729	-603.29529	1203.69373	781.96466	-627.49115	1093.70227	772.51422	-629.15381	942.1424	754.47278	-596.96448	819.7251	803.54321	-652.37408	825.09961	758.7262	-627.65045	736.93573	764.80579	-548.72351	1402.6532	1176.12756	-555.19604	1203.66895	1269.11548	-527.20398	1084.67285	1282.06213	-484.85294	972.10797	1297.03564	-396.02432	851.32855	1258.65845	-445.414	840.27478	1303.36682	-391.49631	775.42432	1301.82166	-455.76544	966.65582	925.81531	-471.96793	962.76849	1143.36389	-612.24231	986.16931	940.32788	-619.55017	984.34424	1107.33838	-495.29367	650.15771	854.56061	-477.98105	487.24677	876.27789	-470.32294	231.40463	888.28949	-439.1712	61.5336	932.68793	-472.1759	45.90407	981.78772	-291.04709	42.31455	933.31934	-557.18402	624.74084	1197.25916	-568.29132	497.26569	1183.32642	-747.9751	297.1496	1181.93298	-869.9679	153.06554	1143.51599	-915.96051	159.71527	1101.39368	-777.14136	31.73835	1120.89575	-611.45898	1690.76526	1015.93811	NaN	NaN	NaN	NaN	NaN	NaN	NaN	NaN	NaN	NaN	NaN	NaN	NaN	NaN	NaN	NaN	NaN	NaN	NaN	NaN	NaN	NaN	NaN	NaN	NaN	NaN	NaN
